<?xml version="1.0" encoding="iso-8859-1"?>
<!-- Uploaded to: SVG Repo, www.svgrepo.com, Generator: SVG Repo Mixer Tools -->
<svg fill="#000000" height="800px" width="800px" version="1.1" id="Capa_1" xmlns="http://www.w3.org/2000/svg" xmlns:xlink="http://www.w3.org/1999/xlink" 
	 viewBox="0 0 612 612" xml:space="preserve">
<g>
	<path d="M477.951,120.549c-8.689-24.09-21.458-45.428-37.952-63.419C406.228,20.289,358.651,0,306.032,0
		c-52.627,0-100.216,20.286-134.001,57.122c-16.503,17.992-29.279,39.331-37.973,63.421c-8.631,23.915-13.008,49.961-13.008,77.415
		c0,69.626,30.818,116.284,53.319,150.353l0.072,0.109c16.684,25.188,26.125,40.221,26.125,56.228v8.984
		c0,18.024,11.587,33.344,27.728,38.924v71.074c0,7.722,6.092,14.001,13.73,14.342c-0.452,3.048-0.717,6.157-0.717,9.333
		c0,35.732,28.964,64.694,64.694,64.694c35.729,0,64.694-28.962,64.694-64.694c0-3.176-0.265-6.285-0.719-9.333
		c7.638-0.34,13.73-6.62,13.73-14.342v-70.471c5.979-2.038,11.472-5.432,16.001-10.013c7.78-7.869,12.066-18.536,11.895-29.599
		l-0.161-10.251c0.549-10.987,6.071-19.389,21.148-39.797c11.831-16.031,26.535-35.958,38.167-62.577
		c13.588-31.087,20.192-64.768,20.192-102.963C490.948,170.505,486.574,144.461,477.951,120.549z M399.463,339.023
		c-15.914,21.538-28.482,38.584-29.22,63.818l0.176,11.346l-66.171-0.287l67.783-139.569c0.182-0.49,0.042-1.015-0.382-1.416
		c-0.418-0.412-1.071-0.639-1.765-0.639h-52.915l45.093-110.07c0-0.822-0.399-1.623-1.927-1.623c-0.1,0-61.871-0.014-61.971-0.014
		c-0.99,0-1.876,0.488-2.144,1.204l-56.055,145.418c-0.179,0.493-0.039,1.01,0.38,1.422c0.423,0.402,1.074,0.638,1.773,0.638h65.572
		l-18,104.585l-47.94-0.207v-8.984c0-29.215-15.25-52.215-33.016-79.037c-20.721-31.371-46.499-70.41-46.499-127.654
		c0-92.297,59.128-156.773,143.798-156.773c84.648,0,143.733,64.476,143.733,156.773
		C449.763,270.827,421.874,308.653,399.463,339.023z"/>
</g>
</svg>